<mxfile host="app.diagrams.net" modified="2024-06-10T10:36:54.266Z" agent="Mozilla/5.0 (Windows NT 10.0; Win64; x64) AppleWebKit/537.36 (KHTML, like Gecko) Chrome/125.0.0.0 Safari/537.36" version="24.3.1" etag="0KE1SKaomAsgXqYExC4t" type="github">
  <diagram name="第 1 页" id="nQII0brr8qPhLzZbRcj_">
    <mxGraphModel>
      <root>
        <mxCell id="0" />
        <mxCell id="1" parent="0" />
      </root>
    </mxGraphModel>
  </diagram>
</mxfile>
